<svg width="38" height="38" viewBox="0 0 38 38" fill="none" xmlns="http://www.w3.org/2000/svg">
<g clip-path="url(#clip0_163_438)">
<path d="M35.1897 0H2.80488C2.79474 0 2.78334 0 2.77067 0C1.25152 0 0.0187148 1.2214 0.000976562 2.73548V35.2622C0.0187148 36.7776 1.25152 38.0003 2.77067 38.0003C2.78334 38.0003 2.79474 38.0003 2.80741 38.0003H35.1859C35.1961 38.0003 35.2087 38.0003 35.2214 38.0003C36.7418 38.0003 37.9772 36.7801 38.0012 35.2648V35.2622V2.73802C37.9772 1.2214 36.7418 0 35.2202 0C35.2075 0 35.1961 0 35.1834 0H35.1897ZM11.2711 32.3823H5.62778V14.2501H11.2711V32.3823ZM8.45069 11.7693C6.64519 11.7693 5.18306 10.3059 5.18306 8.50166C5.18306 6.69743 6.64646 5.23403 8.45069 5.23403C10.2549 5.23403 11.7183 6.69617 11.7183 8.50039C11.7183 8.50166 11.7183 8.50293 11.7183 8.50546C11.7183 10.3084 10.2562 11.7706 8.45322 11.7706C8.45196 11.7706 8.45069 11.7706 8.44942 11.7706L8.45069 11.7693ZM32.3744 32.3823H26.7476V23.5652C26.7476 21.4619 26.7046 18.7569 23.8158 18.7569C20.8814 18.7569 20.4341 21.0451 20.4341 23.4106V32.3836H14.8073V14.2514H20.2124V16.7233H20.2859C21.3349 14.9558 23.2329 13.7902 25.4033 13.7902C25.4806 13.7902 25.5566 13.7914 25.6327 13.794H25.6213C31.3228 13.794 32.377 17.5469 32.377 22.4312V32.3836L32.3744 32.3823Z" fill="#FCFCFD"/>
</g>
<defs>
<clipPath id="clip0_163_438">
<rect width="38" height="38" fill="white"/>
</clipPath>
</defs>
</svg>
