<svg width="38" height="38" viewBox="0 0 38 38" fill="none" xmlns="http://www.w3.org/2000/svg">
<g clip-path="url(#clip0_158_426)">
<path fill-rule="evenodd" clip-rule="evenodd" d="M4.22222 38H33.7778C36.1096 38 38 36.1096 38 33.7778V4.22222C38 1.89035 36.1096 0 33.7778 0H4.22222C1.89035 0 0 1.89035 0 4.22222V33.7778C0 36.1096 1.89035 38 4.22222 38Z" fill="#FCFCFD"/>
<path fill-rule="evenodd" clip-rule="evenodd" d="M32.7223 32.7223H27.0833V23.1178C27.0833 20.4846 26.0827 19.013 23.9985 19.013C21.7311 19.013 20.5465 20.5444 20.5465 23.1178V32.7223H15.1121V14.426H20.5465V16.8905C20.5465 16.8905 22.1805 13.867 26.0631 13.867C29.9439 13.867 32.7223 16.2369 32.7223 21.1382V32.7223ZM8.62888 12.0302C6.77781 12.0302 5.27783 10.5185 5.27783 8.65403C5.27783 6.78958 6.77781 5.27783 8.62888 5.27783C10.4799 5.27783 11.979 6.78958 11.979 8.65403C11.979 10.5185 10.4799 12.0302 8.62888 12.0302ZM5.82279 32.7223H11.4895V14.426H5.82279V32.7223Z" fill="#0D0F1C"/>
</g>
<defs>
<clipPath id="clip0_158_426">
<rect width="38" height="38" fill="white"/>
</clipPath>
</defs>
</svg>
