<svg width="939" height="526" viewBox="0 0 939 526" fill="none" xmlns="http://www.w3.org/2000/svg">
<g opacity="0.35">
<rect opacity="0.72" width="84.2517" height="84.2517" rx="16" transform="matrix(0.951057 0.309017 0.309017 -0.951057 822.836 155.11)" fill="#61C0FF"/>
<rect opacity="0.97" width="46.4099" height="46.4099" rx="16" transform="matrix(0.62932 0.777146 0.777146 -0.62932 423.236 34.2065)" fill="#61C0FF"/>
<rect opacity="0.75" width="49.2659" height="49.2659" rx="16" transform="matrix(0.052336 0.99863 0.99863 -0.052336 373.017 26.5908)" fill="#61C0FF"/>
<rect opacity="0.76" width="51.4078" height="51.4078" rx="16" transform="matrix(0.0697565 -0.997564 -0.997564 -0.0697565 223.283 214.869)" fill="#61C0FF"/>
<rect opacity="0.8" width="53.5498" height="53.5498" rx="16" transform="matrix(0.71934 0.694658 0.694658 -0.71934 644 145.521)" fill="#61C0FF"/>
<rect opacity="0.8" width="53.5498" height="53.5498" rx="16" transform="matrix(0.71934 0.694658 0.694658 -0.71934 764.281 448.521)" fill="#61C0FF"/>
<rect opacity="0.71" width="67" height="66" rx="16" transform="matrix(0 1 1 0 617 253)" fill="#61C0FF"/>
<rect opacity="0.96" width="84.2517" height="84.2517" rx="16" transform="matrix(-0.573576 -0.819152 -0.819152 0.573576 489.34 197.015)" fill="#61C0FF"/>
<rect opacity="0.82" width="76.3978" height="76.3978" rx="16" transform="matrix(0.996195 0.0871557 0.0871557 -0.996195 18.1606 176.372)" fill="#61C0FF"/>
<rect opacity="0.82" width="60.6898" height="60.6898" rx="16" transform="matrix(0.325568 -0.945519 -0.945519 -0.325568 636.241 404.142)" fill="#61C0FF"/>
<rect opacity="0.7" width="84.2517" height="84.2517" rx="16" transform="matrix(0.224951 -0.97437 -0.97437 -0.224951 499.396 416.592)" fill="#61C0FF"/>
<rect opacity="0.78" width="48.5519" height="48.5519" rx="16" transform="matrix(0.681998 0.731354 0.731354 -0.681998 369.209 485.136)" fill="#61C0FF"/>
<rect opacity="0.78" width="53.5498" height="53.5498" rx="16" transform="matrix(-0.422618 -0.906308 -0.906308 0.422618 81.9448 494.656)" fill="#61C0FF"/>
</g>
</svg>
